<svg width="124" height="44" viewBox="0 0 124 44" fill="none" xmlns="http://www.w3.org/2000/svg">
<rect width="124" height="44" rx="22" fill="url(#paint0_linear_7_428)"/>
<path d="M23.6378 28.5V15.4091H28.8793C29.8423 15.4091 30.6456 15.5518 31.2891 15.8374C31.9325 16.1229 32.4162 16.5192 32.7401 17.0263C33.0639 17.5291 33.2259 18.1087 33.2259 18.7649C33.2259 19.2763 33.1236 19.7259 32.919 20.1136C32.7145 20.4972 32.4332 20.8125 32.0753 21.0597C31.7216 21.3026 31.3168 21.4751 30.8608 21.5774V21.7053C31.3594 21.7266 31.826 21.8672 32.2607 22.1271C32.6996 22.3871 33.0554 22.7514 33.3281 23.2202C33.6009 23.6847 33.7372 24.2386 33.7372 24.8821C33.7372 25.5767 33.5646 26.1967 33.2195 26.7422C32.8786 27.2834 32.3736 27.7116 31.7045 28.027C31.0355 28.3423 30.2109 28.5 29.2308 28.5H23.6378ZM26.4055 26.2372H28.6619C29.4332 26.2372 29.9957 26.0902 30.3494 25.7962C30.7031 25.4979 30.88 25.1016 30.88 24.6072C30.88 24.245 30.7926 23.9254 30.6179 23.6484C30.4432 23.3714 30.1939 23.1541 29.87 22.9964C29.5504 22.8388 29.169 22.7599 28.7259 22.7599H26.4055V26.2372ZM26.4055 20.8871H28.4574C28.8366 20.8871 29.1733 20.821 29.4673 20.6889C29.7656 20.5526 30 20.3608 30.1705 20.1136C30.3452 19.8665 30.4325 19.5703 30.4325 19.2251C30.4325 18.7521 30.2642 18.3707 29.9276 18.081C29.5952 17.7912 29.1222 17.6463 28.5085 17.6463H26.4055V20.8871ZM43.6241 15.4091H46.3919V23.9105C46.3919 24.8651 46.1639 25.7003 45.7079 26.4162C45.2562 27.1321 44.6234 27.6903 43.8095 28.0909C42.9956 28.4872 42.0474 28.6854 40.965 28.6854C39.8784 28.6854 38.9281 28.4872 38.1142 28.0909C37.3002 27.6903 36.6674 27.1321 36.2157 26.4162C35.764 25.7003 35.5382 24.8651 35.5382 23.9105V15.4091H38.3059V23.674C38.3059 24.1726 38.4146 24.6158 38.6319 25.0036C38.8535 25.3913 39.1646 25.696 39.5652 25.9176C39.9657 26.1392 40.4324 26.25 40.965 26.25C41.502 26.25 41.9686 26.1392 42.3649 25.9176C42.7654 25.696 43.0744 25.3913 43.2917 25.0036C43.5133 24.6158 43.6241 24.1726 43.6241 23.674V15.4091ZM47.902 15.4091H51.0021L53.9872 21.0469H54.1151L57.1001 15.4091H60.2003L55.4254 23.8722V28.5H52.6768V23.8722L47.902 15.4091ZM76.8276 15.4091V28.5H74.437L68.7417 20.2607H68.6458V28.5H65.878V15.4091H68.307L73.9576 23.642H74.0726V15.4091H76.8276ZM79.1143 28.5V15.4091H87.782V17.6911H81.8821V20.8104H87.2067V23.0923H81.8821V28.5H79.1143ZM89.1451 17.6911V15.4091H99.8965V17.6911H95.8887V28.5H93.1529V17.6911H89.1451Z" fill="white"/>
<defs>
<linearGradient id="paint0_linear_7_428" x1="18.8818" y1="-23.3469" x2="121.882" y2="26.4553" gradientUnits="userSpaceOnUse">
<stop stop-color="#06DBAC"/>
<stop offset="1" stop-color="#BD00FF"/>
</linearGradient>
</defs>
</svg>
