<svg width="129" height="44" viewBox="0 0 129 44" fill="none" xmlns="http://www.w3.org/2000/svg">
<path d="M21.4489 27V16.0909H24.9698C25.744 16.0909 26.3903 16.2401 26.9087 16.5384C27.4308 16.8331 27.8232 17.2344 28.0859 17.7422C28.3523 18.25 28.4854 18.8217 28.4854 19.4574C28.4854 20.093 28.354 20.6665 28.0913 21.1779C27.8285 21.6857 27.4379 22.0888 26.9194 22.3871C26.4009 22.6818 25.7564 22.8292 24.9858 22.8292H22.2159V21.9343H24.9592C25.5309 21.9343 26.005 21.8278 26.3814 21.6147C26.7578 21.3981 27.0384 21.1033 27.223 20.7305C27.4112 20.3576 27.5053 19.9332 27.5053 19.4574C27.5053 18.9815 27.4112 18.5572 27.223 18.1843C27.0384 17.8114 26.756 17.5185 26.3761 17.3054C25.9996 17.0923 25.522 16.9858 24.9432 16.9858H22.445V27H21.4489ZM31.5749 16.0909V27H30.6268V16.0909H31.5749ZM36.369 27.1864C35.8754 27.1864 35.4244 27.0906 35.016 26.8988C34.6076 26.7035 34.2827 26.4229 34.0412 26.0572C33.7997 25.6879 33.679 25.2404 33.679 24.7148C33.679 24.31 33.7553 23.9691 33.908 23.6921C34.0607 23.4151 34.2773 23.1879 34.5579 23.0103C34.8384 22.8327 35.1705 22.6925 35.554 22.5895C35.9375 22.4865 36.3601 22.4066 36.8217 22.3498C37.2798 22.293 37.6669 22.2433 37.983 22.2006C38.3026 22.158 38.5458 22.0906 38.7127 21.9982C38.8796 21.9059 38.9631 21.7567 38.9631 21.5508V21.359C38.9631 20.8015 38.7962 20.3629 38.4624 20.0433C38.1321 19.7202 37.6563 19.5586 37.0348 19.5586C36.4453 19.5586 35.9641 19.6882 35.5913 19.9474C35.2219 20.2067 34.9627 20.5121 34.8136 20.8636L33.9134 20.5387C34.098 20.0913 34.3537 19.7344 34.6804 19.468C35.0071 19.1982 35.3729 19.0046 35.7777 18.8874C36.1825 18.7667 36.5927 18.7063 37.0082 18.7063C37.3207 18.7063 37.6456 18.7472 37.983 18.8288C38.3239 18.9105 38.6399 19.0526 38.9311 19.255C39.2223 19.4538 39.4585 19.7326 39.6396 20.0913C39.8207 20.4464 39.9112 20.8974 39.9112 21.4442V27H38.9631V25.7056H38.9045C38.7908 25.9471 38.6222 26.1815 38.3984 26.4087C38.1747 26.636 37.8942 26.8224 37.5568 26.968C37.2195 27.1136 36.8235 27.1864 36.369 27.1864ZM36.4968 26.3182C37.0011 26.3182 37.4379 26.2063 37.8072 25.9826C38.1765 25.7589 38.4606 25.4624 38.6594 25.093C38.8619 24.7202 38.9631 24.31 38.9631 23.8626V22.68C38.892 22.7475 38.7731 22.8079 38.6062 22.8612C38.4428 22.9144 38.2528 22.9624 38.0362 23.005C37.8232 23.044 37.6101 23.0778 37.397 23.1062C37.1839 23.1346 36.9922 23.1594 36.8217 23.1808C36.3601 23.2376 35.9659 23.3263 35.6392 23.4471C35.3125 23.5678 35.0621 23.7347 34.8881 23.9478C34.7141 24.1573 34.6271 24.4272 34.6271 24.7575C34.6271 25.2546 34.8047 25.6399 35.1598 25.9134C35.5149 26.1832 35.9606 26.3182 36.4968 26.3182ZM42.801 30.0682C42.6127 30.0682 42.437 30.0504 42.2736 30.0149C42.1103 29.9794 41.9806 29.9403 41.8848 29.8977L42.1404 29.0614C42.4636 29.1609 42.7512 29.1964 43.0034 29.168C43.2555 29.1431 43.4792 29.0295 43.6745 28.8271C43.8699 28.6282 44.0439 28.3228 44.1966 27.9109L44.4949 27.0799L41.4853 18.8182H42.5133L44.9423 25.7482H45.0169L47.4458 18.8182H48.4739L45.0115 28.2944C44.8659 28.6886 44.6866 29.017 44.4735 29.2798C44.2605 29.5462 44.0137 29.7433 43.7331 29.8711C43.4561 30.0025 43.1454 30.0682 42.801 30.0682ZM55.4958 21.8864V27H54.5477V18.8182H55.4692V20.1019H55.5544C55.7462 19.6829 56.0445 19.3473 56.4493 19.0952C56.8577 18.8395 57.3619 18.7116 57.9621 18.7116C58.5125 18.7116 58.9955 18.8271 59.411 19.0579C59.83 19.2852 60.1549 19.6207 60.3857 20.0646C60.6201 20.5085 60.7373 21.0536 60.7373 21.6999V27H59.7892V21.7585C59.7892 21.0874 59.6009 20.5565 59.2245 20.1658C58.8517 19.7752 58.3509 19.5799 57.7224 19.5799C57.2927 19.5799 56.911 19.6722 56.5771 19.8569C56.2433 20.0415 55.9788 20.3079 55.7835 20.6559C55.5917 21.0004 55.4958 21.4105 55.4958 21.8864ZM66.4142 27.1705C65.7076 27.1705 65.0826 26.9911 64.5392 26.6325C63.9995 26.2738 63.5769 25.7784 63.2715 25.1463C62.9661 24.5107 62.8134 23.7773 62.8134 22.9464C62.8134 22.1083 62.9661 21.3714 63.2715 20.7358C63.5769 20.0966 63.9995 19.5994 64.5392 19.2443C65.0826 18.8857 65.7076 18.7063 66.4142 18.7063C67.1209 18.7063 67.7441 18.8857 68.2839 19.2443C68.8237 19.603 69.2463 20.1001 69.5517 20.7358C69.8606 21.3714 70.0151 22.1083 70.0151 22.9464C70.0151 23.7773 69.8624 24.5107 69.557 25.1463C69.2516 25.7784 68.8272 26.2738 68.2839 26.6325C67.7441 26.9911 67.1209 27.1705 66.4142 27.1705ZM66.4142 26.3022C66.9824 26.3022 67.4636 26.1495 67.8578 25.8441C68.252 25.5387 68.5502 25.1321 68.7527 24.6243C68.9586 24.1165 69.0616 23.5572 69.0616 22.9464C69.0616 22.3356 68.9586 21.7745 68.7527 21.2631C68.5502 20.7518 68.252 20.3416 67.8578 20.0327C67.4636 19.7237 66.9824 19.5692 66.4142 19.5692C65.8496 19.5692 65.3684 19.7237 64.9707 20.0327C64.5765 20.3416 64.2765 20.7518 64.0705 21.2631C63.8681 21.7745 63.7669 22.3356 63.7669 22.9464C63.7669 23.5572 63.8681 24.1165 64.0705 24.6243C64.2765 25.1321 64.5765 25.5387 64.9707 25.8441C65.3649 26.1495 65.8461 26.3022 66.4142 26.3022ZM73.6346 27L71.163 18.8182H72.1644L74.1033 25.5671H74.1726L76.1062 18.8182H77.1129L79.0305 25.5511H79.1051L81.044 18.8182H82.0455L79.5739 27H78.5938L76.6548 20.2937H76.5536L74.6147 27H73.6346Z" fill="white"/>
<path d="M93.1667 14.5L104.833 22L93.1667 29.5V14.5Z" stroke="white" stroke-width="2" stroke-linecap="round" stroke-linejoin="round"/>
<rect x="0.5" y="0.5" width="128" height="43" rx="21.5" stroke="white"/>
</svg>
