<svg width="103" height="35" viewBox="0 0 103 35" fill="none" xmlns="http://www.w3.org/2000/svg">
<g clip-path="url(#clip0_3_262)">
<path d="M30.1119 27.5729H22.6677V25.0972H32.0391V22.6216H22.6505C21.9985 22.6216 21.3732 22.8806 20.9121 23.3416C20.4511 23.8027 20.1921 24.428 20.1921 25.08V27.5901C20.1921 28.2421 20.4511 28.8674 20.9121 29.3285C21.3732 29.7895 21.9985 30.0486 22.6505 30.0486H30.0947V32.5242H20.3692V34.9999H30.1119C30.7639 34.9999 31.3892 34.7409 31.8503 34.2798C32.3114 33.8188 32.5704 33.1934 32.5704 32.5414V30.0314C32.5704 29.3793 32.3114 28.754 31.8503 28.293C31.3892 27.8319 30.7639 27.5729 30.1119 27.5729V27.5729Z" fill="white"/>
<path d="M44.5274 22.6216H37.0557C36.733 22.6216 36.4134 22.6852 36.1152 22.8088C35.817 22.9323 35.5461 23.1134 35.318 23.3418C35.0898 23.5701 34.9089 23.8411 34.7855 24.1394C34.6622 24.4376 34.5988 24.7573 34.599 25.08V32.5414C34.5988 32.8642 34.6622 33.1838 34.7855 33.4821C34.9089 33.7804 35.0898 34.0514 35.318 34.2797C35.5461 34.508 35.817 34.6891 36.1152 34.8127C36.4134 34.9363 36.733 34.9999 37.0557 34.9999H44.5274C45.1794 34.9999 45.8048 34.7409 46.2658 34.2798C46.7269 33.8188 46.9859 33.1934 46.9859 32.5414V25.08C46.9859 24.428 46.7269 23.8027 46.2658 23.3416C45.8048 22.8806 45.1794 22.6216 44.5274 22.6216V22.6216ZM44.5102 32.5242H37.0833V25.0972H44.5102V32.5242Z" fill="white"/>
<path d="M70.6766 22.6216H63.3906C62.7386 22.6216 62.1132 22.8806 61.6522 23.3417C61.1911 23.8027 60.9321 24.428 60.9321 25.08V34.9999H63.4078V30.9322H70.6594V34.9999H73.1351V25.08C73.1353 24.7571 73.0718 24.4373 72.9484 24.139C72.8249 23.8406 72.6438 23.5695 72.4155 23.3411C72.1872 23.1128 71.916 22.9317 71.6177 22.8083C71.3193 22.6848 70.9995 22.6214 70.6766 22.6216V22.6216ZM70.6594 28.4566H63.4078V25.0972H70.6594V28.4566Z" fill="white"/>
<path d="M99.6625 22.6216H92.3782C92.0549 22.6209 91.7346 22.684 91.4358 22.8072C91.1369 22.9305 90.8653 23.1115 90.6364 23.3398C90.4076 23.5682 90.2261 23.8394 90.1022 24.138C89.9783 24.4367 89.9146 24.7568 89.9146 25.0801V34.9999H92.3902V30.9322H99.6453V34.9999H102.121V25.0801C102.121 24.428 101.862 23.8027 101.401 23.3417C100.94 22.8806 100.314 22.6216 99.6625 22.6216V22.6216ZM99.6453 28.4566H92.3954V25.0972H99.6453V28.4566Z" fill="white"/>
<path d="M85.24 32.5242H84.2497L80.7013 23.6531C80.5799 23.3487 80.37 23.0877 80.0988 22.9039C79.8276 22.72 79.5075 22.6217 79.1798 22.6216H76.9757C76.5412 22.6216 76.1245 22.7942 75.8172 23.1015C75.51 23.4087 75.3373 23.8255 75.3373 24.26V34.9999H77.813V25.0972H78.8033L82.35 33.9683C82.4709 34.2727 82.6804 34.5338 82.9513 34.7177C83.2223 34.9016 83.5423 34.9999 83.8698 34.9999H86.0738C86.5083 34.9999 86.9251 34.8273 87.2323 34.52C87.5396 34.2127 87.7122 33.796 87.7122 33.3615V22.6216H85.2365L85.24 32.5242Z" fill="white"/>
<path d="M51.6553 22.6216H49.1796V32.5414C49.1796 33.1934 49.4386 33.8188 49.8997 34.2798C50.3607 34.7409 50.9861 34.9999 51.6381 34.9999H59.0823V32.5242H51.6553V22.6216Z" fill="white"/>
<path fill-rule="evenodd" clip-rule="evenodd" d="M2.62004 32.06C2.66399 32.0124 2.7171 31.9742 2.77618 31.9476C2.83526 31.921 2.8991 31.9066 2.96388 31.9053H13.7674C13.8131 31.9059 13.8576 31.9198 13.8957 31.9451C13.9337 31.9705 13.9636 32.0063 13.9818 32.0483C13.9999 32.0902 14.0056 32.1365 13.998 32.1816C13.9905 32.2267 13.9701 32.2687 13.9393 32.3024L11.6493 34.8451C11.6054 34.8927 11.5523 34.931 11.4932 34.9576C11.4341 34.9842 11.3702 34.9985 11.3055 34.9999H0.495099C0.449389 34.9992 0.404838 34.9854 0.366805 34.96C0.328772 34.9347 0.298877 34.8988 0.280716 34.8569C0.262554 34.8149 0.2569 34.7686 0.264433 34.7235C0.271967 34.6785 0.292366 34.6365 0.323179 34.6027L2.62004 32.06ZM13.9496 29.9523C13.9804 29.986 14.0008 30.028 14.0084 30.0731C14.0159 30.1182 14.0102 30.1645 13.9921 30.2064C13.9739 30.2484 13.944 30.2842 13.906 30.3096C13.868 30.3349 13.8234 30.3488 13.7777 30.3494L2.97076 30.358C2.90598 30.3567 2.84214 30.3423 2.78306 30.3157C2.72397 30.2891 2.67087 30.2509 2.62692 30.2033L0.31974 27.6692C0.288928 27.6354 0.268528 27.5934 0.260995 27.5484C0.253462 27.5033 0.259116 27.457 0.277277 27.415C0.295439 27.3731 0.325334 27.3372 0.363367 27.3119C0.401399 27.2865 0.445951 27.2727 0.491661 27.272L11.2986 27.2634C11.3634 27.2648 11.4272 27.2792 11.4863 27.3057C11.5454 27.3323 11.5985 27.3706 11.6424 27.4182L13.9496 29.9523ZM2.62004 22.7763C2.66399 22.7287 2.7171 22.6905 2.77618 22.6639C2.83526 22.6373 2.8991 22.6229 2.96388 22.6216L13.7743 22.6302C13.82 22.6308 13.8645 22.6447 13.9025 22.67C13.9406 22.6954 13.9705 22.7312 13.9886 22.7732C14.0068 22.8151 14.0124 22.8614 14.0049 22.9065C13.9974 22.9516 13.977 22.9935 13.9462 23.0273L11.6493 25.5614C11.6054 25.609 11.5523 25.6473 11.4932 25.6739C11.4341 25.7004 11.3702 25.7148 11.3055 25.7162H0.495099C0.449389 25.7155 0.404838 25.7017 0.366805 25.6763C0.328772 25.6509 0.298877 25.6151 0.280716 25.5732C0.262554 25.5312 0.2569 25.4849 0.264433 25.4398C0.271967 25.3947 0.292366 25.3528 0.323179 25.319L2.62004 22.7763Z" fill="white"/>
</g>
<path d="M1.13843 13V3.59877H4.31502C5.05255 3.59877 5.65543 3.73189 6.12365 3.99814C6.59494 4.26132 6.94381 4.61785 7.17028 5.06771C7.39674 5.51757 7.50997 6.01946 7.50997 6.57338C7.50997 7.12729 7.39674 7.63071 7.17028 8.08363C6.94687 8.53656 6.60106 8.89767 6.13283 9.16698C5.66461 9.43322 5.06479 9.56635 4.33338 9.56635H2.05652V8.55645H4.29666C4.80161 8.55645 5.20709 8.46923 5.51312 8.29479C5.81915 8.12036 6.04103 7.88471 6.17874 7.58787C6.31951 7.28796 6.3899 6.94979 6.3899 6.57338C6.3899 6.19696 6.31951 5.86033 6.17874 5.56348C6.04103 5.26663 5.81762 5.03405 5.50853 4.86573C5.19944 4.69435 4.78936 4.60867 4.27829 4.60867H2.27686V13H1.13843ZM11.9857 13.1469C11.3491 13.1469 10.7906 12.9954 10.3101 12.6924C9.83273 12.3895 9.45938 11.9656 9.19007 11.4209C8.92382 10.8762 8.7907 10.2396 8.7907 9.51126C8.7907 8.77679 8.92382 8.13566 9.19007 7.58787C9.45938 7.04007 9.83273 6.61469 10.3101 6.31172C10.7906 6.00875 11.3491 5.85727 11.9857 5.85727C12.6222 5.85727 13.1792 6.00875 13.6566 6.31172C14.137 6.61469 14.5104 7.04007 14.7766 7.58787C15.0459 8.13566 15.1806 8.77679 15.1806 9.51126C15.1806 10.2396 15.0459 10.8762 14.7766 11.4209C14.5104 11.9656 14.137 12.3895 13.6566 12.6924C13.1792 12.9954 12.6222 13.1469 11.9857 13.1469ZM11.9857 12.1737C12.4692 12.1737 12.867 12.0498 13.1792 11.8019C13.4913 11.554 13.7224 11.2281 13.8723 10.8241C14.0223 10.4202 14.0973 9.98255 14.0973 9.51126C14.0973 9.03998 14.0223 8.60082 13.8723 8.1938C13.7224 7.78678 13.4913 7.4578 13.1792 7.20686C12.867 6.95591 12.4692 6.83044 11.9857 6.83044C11.5021 6.83044 11.1043 6.95591 10.7921 7.20686C10.48 7.4578 10.2489 7.78678 10.099 8.1938C9.94902 8.60082 9.87405 9.03998 9.87405 9.51126C9.87405 9.98255 9.94902 10.4202 10.099 10.8241C10.2489 11.2281 10.48 11.554 10.7921 11.8019C11.1043 12.0498 11.5021 12.1737 11.9857 12.1737ZM18.1919 13L16.0436 5.94908H17.182L18.7061 11.3474H18.7795L20.2852 5.94908H21.442L22.9293 11.3291H23.0027L24.5267 5.94908H25.6652L23.5168 13H22.4519L20.9095 7.58327H20.7993L19.2569 13H18.1919ZM29.8138 13.1469C29.1344 13.1469 28.5484 12.9969 28.0557 12.697C27.566 12.3941 27.1881 11.9717 26.9218 11.4301C26.6586 10.8853 26.527 10.2519 26.527 9.52962C26.527 8.80739 26.6586 8.17085 26.9218 7.62C27.1881 7.06608 27.5584 6.63458 28.0327 6.32549C28.5101 6.01334 29.0671 5.85727 29.7036 5.85727C30.0709 5.85727 30.4335 5.91847 30.7916 6.04088C31.1496 6.1633 31.4755 6.36222 31.7693 6.63764C32.0631 6.91001 32.2972 7.27112 32.4717 7.72099C32.6461 8.17085 32.7333 8.72477 32.7333 9.38273V9.84177H27.2982V8.90532H31.6316C31.6316 8.50748 31.552 8.15249 31.3929 7.84034C31.2368 7.52819 31.0134 7.28184 30.7227 7.10128C30.435 6.92072 30.0953 6.83044 29.7036 6.83044C29.2721 6.83044 28.8988 6.93755 28.5836 7.15177C28.2714 7.36293 28.0312 7.63836 27.8629 7.97805C27.6945 8.31775 27.6104 8.68192 27.6104 9.07058V9.69488C27.6104 10.2274 27.7022 10.6788 27.8858 11.0491C28.0725 11.4163 28.3311 11.6963 28.6616 11.8891C28.9921 12.0789 29.3762 12.1737 29.8138 12.1737C30.0984 12.1737 30.3555 12.1339 30.585 12.0544C30.8176 11.9717 31.018 11.8493 31.1863 11.6871C31.3547 11.5219 31.4847 11.3168 31.5765 11.072L32.6231 11.3658C32.513 11.7208 32.3278 12.0329 32.0677 12.3023C31.8076 12.5685 31.4862 12.7766 31.1037 12.9266C30.7212 13.0734 30.2912 13.1469 29.8138 13.1469ZM34.3813 13V5.94908H35.4279V7.01406H35.5014C35.6299 6.66519 35.8625 6.38211 36.1991 6.16483C36.5357 5.94755 36.9152 5.83891 37.3375 5.83891C37.4171 5.83891 37.5166 5.84044 37.6359 5.8435C37.7553 5.84656 37.8455 5.85115 37.9067 5.85727V6.95897C37.87 6.94979 37.7859 6.93602 37.6543 6.91766C37.5257 6.89624 37.3896 6.88553 37.2457 6.88553C36.903 6.88553 36.5969 6.95744 36.3276 7.10128C36.0614 7.24205 35.8502 7.43791 35.6942 7.68885C35.5411 7.93674 35.4646 8.21982 35.4646 8.53809V13H34.3813ZM41.9326 13.1469C41.2532 13.1469 40.6671 12.9969 40.1744 12.697C39.6848 12.3941 39.3068 11.9717 39.0406 11.4301C38.7774 10.8853 38.6458 10.2519 38.6458 9.52962C38.6458 8.80739 38.7774 8.17085 39.0406 7.62C39.3068 7.06608 39.6771 6.63458 40.1515 6.32549C40.6289 6.01334 41.1859 5.85727 41.8224 5.85727C42.1896 5.85727 42.5523 5.91847 42.9103 6.04088C43.2684 6.1633 43.5943 6.36222 43.8881 6.63764C44.1819 6.91001 44.416 7.27112 44.5904 7.72099C44.7649 8.17085 44.8521 8.72477 44.8521 9.38273V9.84177H39.417V8.90532H43.7504C43.7504 8.50748 43.6708 8.15249 43.5117 7.84034C43.3556 7.52819 43.1322 7.28184 42.8415 7.10128C42.5538 6.92072 42.2141 6.83044 41.8224 6.83044C41.3909 6.83044 41.0175 6.93755 40.7023 7.15177C40.3902 7.36293 40.1499 7.63836 39.9816 7.97805C39.8133 8.31775 39.7292 8.68192 39.7292 9.07058V9.69488C39.7292 10.2274 39.821 10.6788 40.0046 11.0491C40.1913 11.4163 40.4499 11.6963 40.7804 11.8891C41.1109 12.0789 41.4949 12.1737 41.9326 12.1737C42.2172 12.1737 42.4742 12.1339 42.7038 12.0544C42.9363 11.9717 43.1368 11.8493 43.3051 11.6871C43.4734 11.5219 43.6035 11.3168 43.6953 11.072L44.7419 11.3658C44.6317 11.7208 44.4466 12.0329 44.1865 12.3023C43.9263 12.5685 43.605 12.7766 43.2225 12.9266C42.8399 13.0734 42.41 13.1469 41.9326 13.1469ZM49.1625 13.1469C48.5749 13.1469 48.0562 12.9985 47.6064 12.7016C47.1565 12.4017 46.8046 11.9794 46.5506 11.4347C46.2965 10.8869 46.1695 10.2396 46.1695 9.4929C46.1695 8.75231 46.2965 8.10965 46.5506 7.56491C46.8046 7.02018 47.158 6.59939 47.6109 6.30254C48.0639 6.00569 48.5872 5.85727 49.1809 5.85727C49.6399 5.85727 50.0026 5.93378 50.2688 6.08679C50.5381 6.23674 50.7432 6.40812 50.8839 6.60092C51.0278 6.79066 51.1395 6.94673 51.219 7.06914H51.3108V3.59877H52.3942V13H51.3476V11.9167H51.219C51.1395 12.0452 51.0262 12.2074 50.8793 12.4032C50.7324 12.596 50.5228 12.7689 50.2505 12.922C49.9781 13.0719 49.6154 13.1469 49.1625 13.1469ZM49.3094 12.1737C49.744 12.1737 50.1112 12.0605 50.4111 11.834C50.711 11.6045 50.939 11.2878 51.0951 10.8838C51.2512 10.4768 51.3292 10.007 51.3292 9.47454C51.3292 8.94817 51.2527 8.48759 51.0997 8.09281C50.9467 7.69498 50.7202 7.38589 50.4203 7.16554C50.1204 6.94214 49.7501 6.83044 49.3094 6.83044C48.8504 6.83044 48.4678 6.94826 48.1618 7.18391C47.8588 7.41649 47.6308 7.73323 47.4778 8.13413C47.3279 8.53197 47.2529 8.97877 47.2529 9.47454C47.2529 9.97643 47.3294 10.4324 47.4824 10.8425C47.6385 11.2495 47.868 11.5739 48.171 11.8157C48.477 12.0544 48.8565 12.1737 49.3094 12.1737ZM58.3113 13V3.59877H59.3946V7.06914H59.4864C59.566 6.94673 59.6762 6.79066 59.8169 6.60092C59.9608 6.40812 60.1658 6.23674 60.4321 6.08679C60.7014 5.93378 61.0655 5.85727 61.5246 5.85727C62.1183 5.85727 62.6416 6.00569 63.0945 6.30254C63.5474 6.59939 63.9009 7.02018 64.1549 7.56491C64.4089 8.10965 64.5359 8.75231 64.5359 9.4929C64.5359 10.2396 64.4089 10.8869 64.1549 11.4347C63.9009 11.9794 63.549 12.4017 63.0991 12.7016C62.6492 12.9985 62.1305 13.1469 61.5429 13.1469C61.09 13.1469 60.7274 13.0719 60.455 12.922C60.1826 12.7689 59.973 12.596 59.8261 12.4032C59.6792 12.2074 59.566 12.0452 59.4864 11.9167H59.3579V13H58.3113ZM59.3763 9.47454C59.3763 10.007 59.4543 10.4768 59.6104 10.8838C59.7664 11.2878 59.9944 11.6045 60.2943 11.834C60.5943 12.0605 60.9615 12.1737 61.3961 12.1737C61.849 12.1737 62.2269 12.0544 62.5299 11.8157C62.8359 11.5739 63.0654 11.2495 63.2185 10.8425C63.3745 10.4324 63.4526 9.97643 63.4526 9.47454C63.4526 8.97877 63.3761 8.53197 63.2231 8.13413C63.0731 7.73323 62.8451 7.41649 62.5391 7.18391C62.2361 6.94826 61.8551 6.83044 61.3961 6.83044C60.9554 6.83044 60.5851 6.94214 60.2852 7.16554C59.9853 7.38589 59.7588 7.69498 59.6058 8.09281C59.4528 8.48759 59.3763 8.94817 59.3763 9.47454ZM66.6383 15.6441C66.4547 15.6441 66.291 15.6288 66.1472 15.5982C66.0033 15.5706 65.9039 15.5431 65.8488 15.5156L66.1242 14.5608C66.3874 14.6281 66.62 14.6526 66.822 14.6342C67.0239 14.6158 67.203 14.5256 67.359 14.3634C67.5182 14.2042 67.6635 13.9456 67.7951 13.5876L67.9971 13.0367L65.3897 5.94908H66.5649L68.5112 11.5678H68.5847L70.531 5.94908H71.7062L68.7132 14.0283C68.5786 14.3924 68.4118 14.6939 68.2129 14.9326C68.0139 15.1743 67.7829 15.3534 67.5197 15.4697C67.2596 15.586 66.9658 15.6441 66.6383 15.6441Z" fill="white"/>
<defs>
<clipPath id="clip0_3_262">
<rect width="102.121" height="12.3783" fill="white" transform="translate(0 22.6217)"/>
</clipPath>
</defs>
</svg>
