<svg width="1420" height="36" viewBox="0 0 1420 36" fill="none" xmlns="http://www.w3.org/2000/svg">
<path d="M9.91193 8.54545V26H8.3608L-1.9517 11.3835H-2.08807V26H-3.68182V8.54545H-2.1392L8.20739 23.179H8.34375V8.54545H9.91193ZM14.5526 26V8.54545H24.6776V9.97727H16.1463V16.5483H24.1406V17.9801H16.1463V24.5682H24.848V26H14.5526ZM31.8366 26L27.0554 8.54545H28.6747L32.6293 23.554H32.7656L36.7202 8.54545H38.5611L42.5156 23.554H42.652L46.6065 8.54545H48.2344L43.4531 26H41.7486L37.7003 11.196H37.5895L33.5412 26H31.8366ZM60.8991 26L56.1179 8.54545H57.7372L61.6918 23.554H61.8281L65.7827 8.54545H67.6236L71.5781 23.554H71.7145L75.669 8.54545H77.2969L72.5156 26H70.8111L66.7628 11.196H66.652L62.6037 26H60.8991ZM78.8438 26H77.1733L83.5227 8.54545H85.2273L91.5767 26H89.9062L84.4347 10.6165H84.3153L78.8438 26ZM80.0455 19.3097H88.7045V20.7415H80.0455V19.3097ZM91.1506 8.54545H92.9915L98.1648 16.8295H98.3182L103.491 8.54545H105.332L99.0341 18.4403V26H97.4489V18.4403L91.1506 8.54545ZM114.019 9.97727V8.54545H126.675V9.97727H121.144V26H119.55V9.97727H114.019ZM143.847 17.2727C143.847 19.0909 143.523 20.6733 142.875 22.0199C142.227 23.3608 141.335 24.4006 140.199 25.1392C139.068 25.8722 137.767 26.2386 136.295 26.2386C134.824 26.2386 133.52 25.8722 132.384 25.1392C131.253 24.4006 130.364 23.3608 129.716 22.0199C129.074 20.6733 128.753 19.0909 128.753 17.2727C128.753 15.4545 129.074 13.875 129.716 12.5341C130.364 11.1875 131.256 10.1477 132.392 9.41477C133.528 8.67614 134.83 8.30682 136.295 8.30682C137.767 8.30682 139.068 8.67614 140.199 9.41477C141.335 10.1477 142.227 11.1875 142.875 12.5341C143.523 13.875 143.847 15.4545 143.847 17.2727ZM142.295 17.2727C142.295 15.7102 142.034 14.3722 141.511 13.2585C140.989 12.1392 140.276 11.2841 139.372 10.6932C138.469 10.1023 137.443 9.80682 136.295 9.80682C135.153 9.80682 134.131 10.1023 133.227 10.6932C132.324 11.2841 131.608 12.1364 131.08 13.25C130.557 14.3636 130.295 15.7045 130.295 17.2727C130.295 18.8352 130.557 20.1733 131.08 21.2869C131.602 22.4006 132.315 23.2557 133.219 23.8523C134.122 24.4432 135.148 24.7386 136.295 24.7386C137.443 24.7386 138.469 24.4432 139.372 23.8523C140.281 23.2614 140.997 22.4091 141.52 21.2955C142.043 20.1761 142.301 18.8352 142.295 17.2727ZM154.451 26V8.54545H160.085C161.323 8.54545 162.357 8.76989 163.187 9.21875C164.022 9.66193 164.65 10.2784 165.07 11.0682C165.496 11.8523 165.71 12.7528 165.71 13.7699C165.71 14.7869 165.496 15.6847 165.07 16.4631C164.65 17.2415 164.025 17.8494 163.195 18.2869C162.366 18.7244 161.337 18.9432 160.11 18.9432H155.312V17.4858H160.067C160.977 17.4858 161.732 17.3352 162.335 17.0341C162.942 16.733 163.394 16.304 163.69 15.7472C163.991 15.1903 164.141 14.5312 164.141 13.7699C164.141 13.0085 163.991 12.3437 163.69 11.7756C163.388 11.2017 162.934 10.7585 162.326 10.446C161.724 10.1335 160.962 9.97727 160.042 9.97727H156.045V26H154.451ZM162.147 18.125L166.442 26H164.602L160.349 18.125H162.147ZM169.592 26V8.54545H179.717V9.97727H171.185V16.5483H179.18V17.9801H171.185V24.5682H179.887V26H169.592ZM183.867 26H182.197L188.546 8.54545H190.251L196.6 26H194.93L189.458 10.6165H189.339L183.867 26ZM185.069 19.3097H193.728V20.7415H185.069V19.3097ZM212.442 14H210.839C210.72 13.4034 210.504 12.8523 210.192 12.3466C209.885 11.8352 209.499 11.3892 209.033 11.0085C208.567 10.6278 208.038 10.3324 207.447 10.1222C206.857 9.91193 206.217 9.80682 205.53 9.80682C204.428 9.80682 203.422 10.0937 202.513 10.6676C201.609 11.2415 200.885 12.0852 200.339 13.1989C199.8 14.3068 199.53 15.6648 199.53 17.2727C199.53 18.892 199.8 20.2557 200.339 21.3636C200.885 22.4716 201.609 23.3125 202.513 23.8864C203.422 24.4545 204.428 24.7386 205.53 24.7386C206.217 24.7386 206.857 24.6335 207.447 24.4233C208.038 24.2131 208.567 23.9205 209.033 23.5455C209.499 23.1648 209.885 22.7187 210.192 22.2074C210.504 21.696 210.72 21.142 210.839 20.5455H212.442C212.3 21.3466 212.033 22.0938 211.641 22.7869C211.254 23.4744 210.76 24.0767 210.158 24.5938C209.561 25.1108 208.874 25.5142 208.095 25.804C207.317 26.0937 206.462 26.2386 205.53 26.2386C204.064 26.2386 202.763 25.8722 201.626 25.1392C200.49 24.4006 199.598 23.3608 198.95 22.0199C198.308 20.679 197.987 19.0966 197.987 17.2727C197.987 15.4489 198.308 13.8665 198.95 12.5256C199.598 11.1847 200.49 10.1477 201.626 9.41477C202.763 8.67614 204.064 8.30682 205.53 8.30682C206.462 8.30682 207.317 8.4517 208.095 8.74148C208.874 9.02557 209.561 9.42898 210.158 9.9517C210.76 10.4688 211.254 11.071 211.641 11.7585C212.033 12.446 212.3 13.1932 212.442 14ZM216.185 26V8.54545H217.779V16.5483H227.683V8.54545H229.276V26H227.683V17.9801H217.779V26H216.185ZM239.597 9.97727V8.54545H252.254V9.97727H246.722V26H245.129V9.97727H239.597ZM255.842 26V8.54545H257.435V16.5483H267.339V8.54545H268.933V26H267.339V17.9801H257.435V26H255.842ZM273.56 26V8.54545H283.685V9.97727H275.154V16.5483H283.148V17.9801H275.154V24.5682H283.856V26H273.56ZM308.154 8.54545V26H306.603L296.29 11.3835H296.154V26H294.56V8.54545H296.103L306.45 23.179H306.586V8.54545H308.154ZM312.795 26V8.54545H322.92V9.97727H314.388V16.5483H322.383V17.9801H314.388V24.5682H323.09V26H312.795ZM330.079 26L325.298 8.54545H326.917L330.871 23.554H331.008L334.962 8.54545H336.803L340.758 23.554H340.894L344.849 8.54545H346.477L341.695 26H339.991L335.942 11.196H335.832L331.783 26H330.079ZM356.107 26V8.54545H366.207V9.97727H357.701V16.5483H365.414V17.9801H357.701V26H356.107ZM368.016 26H366.345L372.695 8.54545H374.399L380.749 26H379.078L373.607 10.6165H373.487L368.016 26ZM369.217 19.3097H377.876V20.7415H369.217V19.3097ZM397.334 8.54545V26H395.783L385.47 11.3835H385.334V26H383.74V8.54545H385.283L395.629 23.179H395.766V8.54545H397.334Z" fill="white"/>
<path d="M491.912 8.54545V26H490.361L480.048 11.3835H479.912V26H478.318V8.54545H479.861L490.207 23.179H490.344V8.54545H491.912ZM496.553 26V8.54545H506.678V9.97727H498.146V16.5483H506.141V17.9801H498.146V24.5682H506.848V26H496.553ZM513.837 26L509.055 8.54545H510.675L514.629 23.554H514.766L518.72 8.54545H520.561L524.516 23.554H524.652L528.607 8.54545H530.234L525.453 26H523.749L519.7 11.196H519.589L515.541 26H513.837ZM542.899 26L538.118 8.54545H539.737L543.692 23.554H543.828L547.783 8.54545H549.624L553.578 23.554H553.714L557.669 8.54545H559.297L554.516 26H552.811L548.763 11.196H548.652L544.604 26H542.899ZM560.844 26H559.173L565.523 8.54545H567.227L573.577 26H571.906L566.435 10.6165H566.315L560.844 26ZM562.045 19.3097H570.705V20.7415H562.045V19.3097ZM573.151 8.54545H574.991L580.165 16.8295H580.318L585.491 8.54545H587.332L581.034 18.4403V26H579.449V18.4403L573.151 8.54545ZM596.019 9.97727V8.54545H608.675V9.97727H603.144V26H601.55V9.97727H596.019ZM625.847 17.2727C625.847 19.0909 625.523 20.6733 624.875 22.0199C624.227 23.3608 623.335 24.4006 622.199 25.1392C621.068 25.8722 619.767 26.2386 618.295 26.2386C616.824 26.2386 615.52 25.8722 614.384 25.1392C613.253 24.4006 612.364 23.3608 611.716 22.0199C611.074 20.6733 610.753 19.0909 610.753 17.2727C610.753 15.4545 611.074 13.875 611.716 12.5341C612.364 11.1875 613.256 10.1477 614.392 9.41477C615.528 8.67614 616.83 8.30682 618.295 8.30682C619.767 8.30682 621.068 8.67614 622.199 9.41477C623.335 10.1477 624.227 11.1875 624.875 12.5341C625.523 13.875 625.847 15.4545 625.847 17.2727ZM624.295 17.2727C624.295 15.7102 624.034 14.3722 623.511 13.2585C622.989 12.1392 622.276 11.2841 621.372 10.6932C620.469 10.1023 619.443 9.80682 618.295 9.80682C617.153 9.80682 616.131 10.1023 615.227 10.6932C614.324 11.2841 613.608 12.1364 613.08 13.25C612.557 14.3636 612.295 15.7045 612.295 17.2727C612.295 18.8352 612.557 20.1733 613.08 21.2869C613.602 22.4006 614.315 23.2557 615.219 23.8523C616.122 24.4432 617.148 24.7386 618.295 24.7386C619.443 24.7386 620.469 24.4432 621.372 23.8523C622.281 23.2614 622.997 22.4091 623.52 21.2955C624.043 20.1761 624.301 18.8352 624.295 17.2727ZM636.451 26V8.54545H642.085C643.323 8.54545 644.357 8.76989 645.187 9.21875C646.022 9.66193 646.65 10.2784 647.07 11.0682C647.496 11.8523 647.71 12.7528 647.71 13.7699C647.71 14.7869 647.496 15.6847 647.07 16.4631C646.65 17.2415 646.025 17.8494 645.195 18.2869C644.366 18.7244 643.337 18.9432 642.11 18.9432H637.312V17.4858H642.067C642.977 17.4858 643.732 17.3352 644.335 17.0341C644.942 16.733 645.394 16.304 645.69 15.7472C645.991 15.1903 646.141 14.5312 646.141 13.7699C646.141 13.0085 645.991 12.3437 645.69 11.7756C645.388 11.2017 644.934 10.7585 644.326 10.446C643.724 10.1335 642.962 9.97727 642.042 9.97727H638.045V26H636.451ZM644.147 18.125L648.442 26H646.602L642.349 18.125H644.147ZM651.592 26V8.54545H661.717V9.97727H653.185V16.5483H661.18V17.9801H653.185V24.5682H661.887V26H651.592ZM665.867 26H664.197L670.546 8.54545H672.251L678.6 26H676.93L671.458 10.6165H671.339L665.867 26ZM667.069 19.3097H675.728V20.7415H667.069V19.3097ZM694.442 14H692.839C692.72 13.4034 692.504 12.8523 692.192 12.3466C691.885 11.8352 691.499 11.3892 691.033 11.0085C690.567 10.6278 690.038 10.3324 689.447 10.1222C688.857 9.91193 688.217 9.80682 687.53 9.80682C686.428 9.80682 685.422 10.0937 684.513 10.6676C683.609 11.2415 682.885 12.0852 682.339 13.1989C681.8 14.3068 681.53 15.6648 681.53 17.2727C681.53 18.892 681.8 20.2557 682.339 21.3636C682.885 22.4716 683.609 23.3125 684.513 23.8864C685.422 24.4545 686.428 24.7386 687.53 24.7386C688.217 24.7386 688.857 24.6335 689.447 24.4233C690.038 24.2131 690.567 23.9205 691.033 23.5455C691.499 23.1648 691.885 22.7187 692.192 22.2074C692.504 21.696 692.72 21.142 692.839 20.5455H694.442C694.3 21.3466 694.033 22.0938 693.641 22.7869C693.254 23.4744 692.76 24.0767 692.158 24.5938C691.561 25.1108 690.874 25.5142 690.095 25.804C689.317 26.0937 688.462 26.2386 687.53 26.2386C686.064 26.2386 684.763 25.8722 683.626 25.1392C682.49 24.4006 681.598 23.3608 680.95 22.0199C680.308 20.679 679.987 19.0966 679.987 17.2727C679.987 15.4489 680.308 13.8665 680.95 12.5256C681.598 11.1847 682.49 10.1477 683.626 9.41477C684.763 8.67614 686.064 8.30682 687.53 8.30682C688.462 8.30682 689.317 8.4517 690.095 8.74148C690.874 9.02557 691.561 9.42898 692.158 9.9517C692.76 10.4688 693.254 11.071 693.641 11.7585C694.033 12.446 694.3 13.1932 694.442 14ZM698.185 26V8.54545H699.779V16.5483H709.683V8.54545H711.276V26H709.683V17.9801H699.779V26H698.185ZM721.597 9.97727V8.54545H734.254V9.97727H728.722V26H727.129V9.97727H721.597ZM737.842 26V8.54545H739.435V16.5483H749.339V8.54545H750.933V26H749.339V17.9801H739.435V26H737.842ZM755.56 26V8.54545H765.685V9.97727H757.154V16.5483H765.148V17.9801H757.154V24.5682H765.856V26H755.56ZM790.154 8.54545V26H788.603L778.29 11.3835H778.154V26H776.56V8.54545H778.103L788.45 23.179H788.586V8.54545H790.154ZM794.795 26V8.54545H804.92V9.97727H796.388V16.5483H804.383V17.9801H796.388V24.5682H805.09V26H794.795ZM812.079 26L807.298 8.54545H808.917L812.871 23.554H813.008L816.962 8.54545H818.803L822.758 23.554H822.894L826.849 8.54545H828.477L823.695 26H821.991L817.942 11.196H817.832L813.783 26H812.079ZM838.107 26V8.54545H848.207V9.97727H839.701V16.5483H847.414V17.9801H839.701V26H838.107ZM850.016 26H848.345L854.695 8.54545H856.399L862.749 26H861.078L855.607 10.6165H855.487L850.016 26ZM851.217 19.3097H859.876V20.7415H851.217V19.3097ZM879.334 8.54545V26H877.783L867.47 11.3835H867.334V26H865.74V8.54545H867.283L877.629 23.179H877.766V8.54545H879.334Z" fill="white"/>
<path d="M973.912 8.54545V26H972.361L962.048 11.3835H961.912V26H960.318V8.54545H961.861L972.207 23.179H972.344V8.54545H973.912ZM978.553 26V8.54545H988.678V9.97727H980.146V16.5483H988.141V17.9801H980.146V24.5682H988.848V26H978.553ZM995.837 26L991.055 8.54545H992.675L996.629 23.554H996.766L1000.72 8.54545H1002.56L1006.52 23.554H1006.65L1010.61 8.54545H1012.23L1007.45 26H1005.75L1001.7 11.196H1001.59L997.541 26H995.837ZM1024.9 26L1020.12 8.54545H1021.74L1025.69 23.554H1025.83L1029.78 8.54545H1031.62L1035.58 23.554H1035.71L1039.67 8.54545H1041.3L1036.52 26H1034.81L1030.76 11.196H1030.65L1026.6 26H1024.9ZM1042.84 26H1041.17L1047.52 8.54545H1049.23L1055.58 26H1053.91L1048.43 10.6165H1048.32L1042.84 26ZM1044.05 19.3097H1052.7V20.7415H1044.05V19.3097ZM1055.15 8.54545H1056.99L1062.16 16.8295H1062.32L1067.49 8.54545H1069.33L1063.03 18.4403V26H1061.45V18.4403L1055.15 8.54545ZM1078.02 9.97727V8.54545H1090.68V9.97727H1085.14V26H1083.55V9.97727H1078.02ZM1107.85 17.2727C1107.85 19.0909 1107.52 20.6733 1106.88 22.0199C1106.23 23.3608 1105.34 24.4006 1104.2 25.1392C1103.07 25.8722 1101.77 26.2386 1100.3 26.2386C1098.82 26.2386 1097.52 25.8722 1096.38 25.1392C1095.25 24.4006 1094.36 23.3608 1093.72 22.0199C1093.07 20.6733 1092.75 19.0909 1092.75 17.2727C1092.75 15.4545 1093.07 13.875 1093.72 12.5341C1094.36 11.1875 1095.26 10.1477 1096.39 9.41477C1097.53 8.67614 1098.83 8.30682 1100.3 8.30682C1101.77 8.30682 1103.07 8.67614 1104.2 9.41477C1105.34 10.1477 1106.23 11.1875 1106.88 12.5341C1107.52 13.875 1107.85 15.4545 1107.85 17.2727ZM1106.3 17.2727C1106.3 15.7102 1106.03 14.3722 1105.51 13.2585C1104.99 12.1392 1104.28 11.2841 1103.37 10.6932C1102.47 10.1023 1101.44 9.80682 1100.3 9.80682C1099.15 9.80682 1098.13 10.1023 1097.23 10.6932C1096.32 11.2841 1095.61 12.1364 1095.08 13.25C1094.56 14.3636 1094.3 15.7045 1094.3 17.2727C1094.3 18.8352 1094.56 20.1733 1095.08 21.2869C1095.6 22.4006 1096.32 23.2557 1097.22 23.8523C1098.12 24.4432 1099.15 24.7386 1100.3 24.7386C1101.44 24.7386 1102.47 24.4432 1103.37 23.8523C1104.28 23.2614 1105 22.4091 1105.52 21.2955C1106.04 20.1761 1106.3 18.8352 1106.3 17.2727ZM1118.45 26V8.54545H1124.08C1125.32 8.54545 1126.36 8.76989 1127.19 9.21875C1128.02 9.66193 1128.65 10.2784 1129.07 11.0682C1129.5 11.8523 1129.71 12.7528 1129.71 13.7699C1129.71 14.7869 1129.5 15.6847 1129.07 16.4631C1128.65 17.2415 1128.02 17.8494 1127.2 18.2869C1126.37 18.7244 1125.34 18.9432 1124.11 18.9432H1119.31V17.4858H1124.07C1124.98 17.4858 1125.73 17.3352 1126.33 17.0341C1126.94 16.733 1127.39 16.304 1127.69 15.7472C1127.99 15.1903 1128.14 14.5312 1128.14 13.7699C1128.14 13.0085 1127.99 12.3437 1127.69 11.7756C1127.39 11.2017 1126.93 10.7585 1126.33 10.446C1125.72 10.1335 1124.96 9.97727 1124.04 9.97727H1120.04V26H1118.45ZM1126.15 18.125L1130.44 26H1128.6L1124.35 18.125H1126.15ZM1133.59 26V8.54545H1143.72V9.97727H1135.19V16.5483H1143.18V17.9801H1135.19V24.5682H1143.89V26H1133.59ZM1147.87 26H1146.2L1152.55 8.54545H1154.25L1160.6 26H1158.93L1153.46 10.6165H1153.34L1147.87 26ZM1149.07 19.3097H1157.73V20.7415H1149.07V19.3097ZM1176.44 14H1174.84C1174.72 13.4034 1174.5 12.8523 1174.19 12.3466C1173.88 11.8352 1173.5 11.3892 1173.03 11.0085C1172.57 10.6278 1172.04 10.3324 1171.45 10.1222C1170.86 9.91193 1170.22 9.80682 1169.53 9.80682C1168.43 9.80682 1167.42 10.0937 1166.51 10.6676C1165.61 11.2415 1164.88 12.0852 1164.34 13.1989C1163.8 14.3068 1163.53 15.6648 1163.53 17.2727C1163.53 18.892 1163.8 20.2557 1164.34 21.3636C1164.88 22.4716 1165.61 23.3125 1166.51 23.8864C1167.42 24.4545 1168.43 24.7386 1169.53 24.7386C1170.22 24.7386 1170.86 24.6335 1171.45 24.4233C1172.04 24.2131 1172.57 23.9205 1173.03 23.5455C1173.5 23.1648 1173.88 22.7187 1174.19 22.2074C1174.5 21.696 1174.72 21.142 1174.84 20.5455H1176.44C1176.3 21.3466 1176.03 22.0938 1175.64 22.7869C1175.25 23.4744 1174.76 24.0767 1174.16 24.5938C1173.56 25.1108 1172.87 25.5142 1172.1 25.804C1171.32 26.0937 1170.46 26.2386 1169.53 26.2386C1168.06 26.2386 1166.76 25.8722 1165.63 25.1392C1164.49 24.4006 1163.6 23.3608 1162.95 22.0199C1162.31 20.679 1161.99 19.0966 1161.99 17.2727C1161.99 15.4489 1162.31 13.8665 1162.95 12.5256C1163.6 11.1847 1164.49 10.1477 1165.63 9.41477C1166.76 8.67614 1168.06 8.30682 1169.53 8.30682C1170.46 8.30682 1171.32 8.4517 1172.1 8.74148C1172.87 9.02557 1173.56 9.42898 1174.16 9.9517C1174.76 10.4688 1175.25 11.071 1175.64 11.7585C1176.03 12.446 1176.3 13.1932 1176.44 14ZM1180.19 26V8.54545H1181.78V16.5483H1191.68V8.54545H1193.28V26H1191.68V17.9801H1181.78V26H1180.19ZM1203.6 9.97727V8.54545H1216.25V9.97727H1210.72V26H1209.13V9.97727H1203.6ZM1219.84 26V8.54545H1221.44V16.5483H1231.34V8.54545H1232.93V26H1231.34V17.9801H1221.44V26H1219.84ZM1237.56 26V8.54545H1247.69V9.97727H1239.15V16.5483H1247.15V17.9801H1239.15V24.5682H1247.86V26H1237.56ZM1272.15 8.54545V26H1270.6L1260.29 11.3835H1260.15V26H1258.56V8.54545H1260.1L1270.45 23.179H1270.59V8.54545H1272.15ZM1276.79 26V8.54545H1286.92V9.97727H1278.39V16.5483H1286.38V17.9801H1278.39V24.5682H1287.09V26H1276.79ZM1294.08 26L1289.3 8.54545H1290.92L1294.87 23.554H1295.01L1298.96 8.54545H1300.8L1304.76 23.554H1304.89L1308.85 8.54545H1310.48L1305.7 26H1303.99L1299.94 11.196H1299.83L1295.78 26H1294.08ZM1320.11 26V8.54545H1330.21V9.97727H1321.7V16.5483H1329.41V17.9801H1321.7V26H1320.11ZM1332.02 26H1330.35L1336.69 8.54545H1338.4L1344.75 26H1343.08L1337.61 10.6165H1337.49L1332.02 26ZM1333.22 19.3097H1341.88V20.7415H1333.22V19.3097ZM1361.33 8.54545V26H1359.78L1349.47 11.3835H1349.33V26H1347.74V8.54545H1349.28L1359.63 23.179H1359.77V8.54545H1361.33Z" fill="white"/>
<path d="M438 33C446.284 33 453 26.2843 453 18C453 9.71573 446.284 3 438 3C429.716 3 423 9.71573 423 18C423 26.2843 429.716 33 438 33Z" stroke="white" stroke-linecap="round" stroke-linejoin="round"/>
<path d="M423 18H453" stroke="white" stroke-linecap="round" stroke-linejoin="round"/>
<path d="M438 3C441.752 7.10753 443.884 12.4381 444 18C443.884 23.5619 441.752 28.8925 438 33C434.248 28.8925 432.116 23.5619 432 18C432.116 12.4381 434.248 7.10753 438 3V3Z" stroke="white" stroke-linecap="round" stroke-linejoin="round"/>
<path d="M920 33C928.284 33 935 26.2843 935 18C935 9.71573 928.284 3 920 3C911.716 3 905 9.71573 905 18C905 26.2843 911.716 33 920 33Z" stroke="white" stroke-linecap="round" stroke-linejoin="round"/>
<path d="M905 18H935" stroke="white" stroke-linecap="round" stroke-linejoin="round"/>
<path d="M920 3C923.752 7.10753 925.884 12.4381 926 18C925.884 23.5619 923.752 28.8925 920 33C916.248 28.8925 914.116 23.5619 914 18C914.116 12.4381 916.248 7.10753 920 3V3Z" stroke="white" stroke-linecap="round" stroke-linejoin="round"/>
<path d="M1402 33C1410.28 33 1417 26.2843 1417 18C1417 9.71573 1410.28 3 1402 3C1393.72 3 1387 9.71573 1387 18C1387 26.2843 1393.72 33 1402 33Z" stroke="white" stroke-linecap="round" stroke-linejoin="round"/>
<path d="M1387 18H1417" stroke="white" stroke-linecap="round" stroke-linejoin="round"/>
<path d="M1402 3C1405.75 7.10753 1407.88 12.4381 1408 18C1407.88 23.5619 1405.75 28.8925 1402 33C1398.25 28.8925 1396.12 23.5619 1396 18C1396.12 12.4381 1398.25 7.10753 1402 3V3Z" stroke="white" stroke-linecap="round" stroke-linejoin="round"/>
</svg>
