<svg width="14" height="13" viewBox="0 0 14 13" fill="none" xmlns="http://www.w3.org/2000/svg">
<path fill-rule="evenodd" clip-rule="evenodd" d="M2.36229 9.43845C2.40624 9.39084 2.45935 9.3526 2.51843 9.32602C2.57751 9.29943 2.64135 9.28504 2.70613 9.28372H13.5096C13.5553 9.28436 13.5999 9.2982 13.6379 9.32356C13.6759 9.34893 13.7058 9.38474 13.724 9.42669C13.7422 9.46864 13.7478 9.51495 13.7403 9.56004C13.7328 9.60513 13.7124 9.64708 13.6815 9.68085L11.3916 12.2236C11.3476 12.2712 11.2945 12.3094 11.2354 12.336C11.1763 12.3626 11.1125 12.377 11.0477 12.3783H0.237348C0.191638 12.3776 0.147086 12.3638 0.109053 12.3384C0.0710205 12.3131 0.0411254 12.2773 0.0229641 12.2353C0.00480281 12.1934 -0.000851284 12.1471 0.00668193 12.102C0.0142152 12.0569 0.0346148 12.0149 0.0654273 11.9812L2.36229 9.43845ZM13.6919 7.3307C13.7227 7.36447 13.7431 7.40642 13.7506 7.45151C13.7581 7.4966 13.7525 7.54291 13.7343 7.58486C13.7162 7.62681 13.6863 7.66263 13.6482 7.68799C13.6102 7.71335 13.5656 7.72719 13.5199 7.72783L2.71301 7.73643C2.64823 7.73511 2.58439 7.72072 2.52531 7.69413C2.46622 7.66754 2.41311 7.6293 2.36916 7.5817L0.0619889 5.04759C0.0311764 5.01382 0.0107767 4.97187 0.00324352 4.92678C-0.00428969 4.88169 0.0013644 4.83538 0.0195257 4.79343C0.037687 4.75148 0.0675821 4.71566 0.105615 4.6903C0.143648 4.66493 0.188199 4.6511 0.23391 4.65045L11.0408 4.64186C11.1056 4.64318 11.1695 4.65757 11.2285 4.68416C11.2876 4.71074 11.3407 4.74898 11.3847 4.79659L13.6919 7.3307ZM2.36229 0.154729C2.40624 0.107126 2.45935 0.0688857 2.51843 0.0422985C2.57751 0.0157112 2.64135 0.0013244 2.70613 0L13.5165 0.00859603C13.5622 0.00923982 13.6068 0.023076 13.6448 0.0484404C13.6828 0.0738048 13.7127 0.109617 13.7309 0.15157C13.749 0.193522 13.7547 0.239829 13.7472 0.284919C13.7396 0.330009 13.7192 0.371962 13.6884 0.405733L11.3916 2.93984C11.3476 2.98745 11.2945 3.02569 11.2354 3.05227C11.1763 3.07886 11.1125 3.09325 11.0477 3.09457H0.237348C0.191638 3.09393 0.147086 3.08009 0.109053 3.05473C0.0710205 3.02936 0.0411254 2.99355 0.0229641 2.9516C0.00480281 2.90965 -0.000851284 2.86334 0.00668193 2.81825C0.0142152 2.77316 0.0346148 2.73121 0.0654273 2.69744L2.36229 0.154729Z" fill="black"/>
</svg>
