<svg width="17" height="16" viewBox="0 0 17 16" fill="none" xmlns="http://www.w3.org/2000/svg">
<path fill-rule="evenodd" clip-rule="evenodd" d="M3.20331 11.6023C3.25654 11.5446 3.32086 11.4983 3.39242 11.4661C3.46398 11.4339 3.5413 11.4165 3.61975 11.4149H16.7042C16.7595 11.4157 16.8135 11.4324 16.8595 11.4632C16.9056 11.4939 16.9418 11.5373 16.9638 11.5881C16.9858 11.6389 16.9926 11.695 16.9835 11.7496C16.9744 11.8042 16.9497 11.855 16.9124 11.8959L14.1389 14.9754C14.0857 15.0331 14.0214 15.0794 13.9498 15.1116C13.8782 15.1438 13.8009 15.1612 13.7225 15.1628H0.629744C0.574383 15.162 0.520425 15.1453 0.474363 15.1146C0.4283 15.0838 0.392093 15.0405 0.370098 14.9897C0.348102 14.9389 0.341254 14.8828 0.350378 14.8282C0.359502 14.7735 0.384208 14.7227 0.421526 14.6818L3.20331 11.6023ZM16.9249 9.04955C16.9622 9.09045 16.9869 9.14126 16.996 9.19587C17.0051 9.25048 16.9983 9.30656 16.9763 9.35737C16.9543 9.40818 16.9181 9.45155 16.872 9.48227C16.826 9.51299 16.772 9.52975 16.7166 9.53053L3.62808 9.54094C3.54963 9.53934 3.47231 9.52191 3.40075 9.48971C3.32919 9.45751 3.26487 9.4112 3.21164 9.35354L0.417362 6.28442C0.380044 6.24352 0.355337 6.1927 0.346213 6.13809C0.33709 6.08348 0.343938 6.0274 0.365933 5.97659C0.387929 5.92578 0.424136 5.88241 0.470198 5.85169C0.516261 5.82097 0.570218 5.80421 0.625579 5.80343L13.7141 5.79302C13.7926 5.79463 13.8699 5.81205 13.9415 5.84425C14.013 5.87645 14.0774 5.92276 14.1306 5.98042L16.9249 9.04955ZM3.20331 0.358539C3.25654 0.300886 3.32086 0.254572 3.39242 0.222371C3.46398 0.190171 3.5413 0.172747 3.61975 0.171143L16.7125 0.181553C16.7678 0.182333 16.8218 0.199091 16.8679 0.22981C16.9139 0.26053 16.9501 0.303903 16.9721 0.354713C16.9941 0.405523 17.001 0.461606 16.9918 0.516215C16.9827 0.570825 16.958 0.621636 16.9207 0.662536L14.1389 3.73167C14.0857 3.78932 14.0214 3.83563 13.9498 3.86783C13.8782 3.90003 13.8009 3.91746 13.7225 3.91906H0.629744C0.574383 3.91828 0.520425 3.90152 0.474363 3.87081C0.4283 3.84009 0.392093 3.79671 0.370098 3.7459C0.348102 3.69509 0.341254 3.63901 0.350378 3.5844C0.359502 3.52979 0.384208 3.47898 0.421526 3.43808L3.20331 0.358539Z" fill="white"/>
</svg>
